<svg width="221" height="90" viewBox="0 0 221 90" fill="none" xmlns="http://www.w3.org/2000/svg">
<g filter="url(#filter0_ii_76_1411)">
<rect width="221" height="90" rx="30" fill="#A6FFAF"/>
</g>
<rect x="1.5" y="1.5" width="218" height="87" rx="28.5" stroke="#D9D9D9" stroke-width="3"/>
<rect x="1.5" y="1.5" width="218" height="87" rx="28.5" stroke="#425F57" stroke-width="3"/>
<g filter="url(#filter1_i_76_1411)">
<path d="M64.873 21.36C64.873 20.76 66.453 20.46 69.613 20.46C70.693 20.46 71.933 20.54 73.333 20.7C74.773 20.82 75.493 21 75.493 21.24V52.86H77.593C78.593 52.86 79.253 53.76 79.573 55.56C79.653 56.08 79.693 56.8 79.693 57.72C79.693 58.6 79.413 59.68 78.853 60.96C78.053 62.72 76.773 63.6 75.013 63.6C73.693 63.6 72.513 63.34 71.473 62.82C70.473 62.3 69.793 61.76 69.433 61.2L68.893 60.42C66.693 62.54 63.933 63.6 60.613 63.6C57.293 63.6 54.453 62.22 52.093 59.46C49.733 56.7 48.553 52.86 48.553 47.94C48.553 42.98 49.793 39.16 52.273 36.48C54.753 33.76 57.853 32.4 61.573 32.4C62.653 32.4 63.753 32.52 64.873 32.76V21.36ZM62.893 42C60.653 42 59.533 44.02 59.533 48.06C59.533 50.1 59.853 51.58 60.493 52.5C61.133 53.38 61.833 53.82 62.593 53.82C63.393 53.82 64.153 53.48 64.873 52.8V42.6C64.193 42.2 63.533 42 62.893 42ZM88.8987 59.46C86.4187 56.7 85.1787 52.88 85.1787 48C85.1787 43.12 86.4187 39.3 88.8987 36.54C91.4187 33.78 94.7987 32.4 99.0387 32.4C103.279 32.4 106.639 33.78 109.119 36.54C111.599 39.3 112.839 43.12 112.839 48C112.839 52.88 111.599 56.7 109.119 59.46C106.639 62.22 103.279 63.6 99.0387 63.6C94.7987 63.6 91.4187 62.22 88.8987 59.46ZM99.0387 42.42C96.7987 42.42 95.6787 44.26 95.6787 47.94C95.6787 51.62 96.7987 53.46 99.0387 53.46C101.319 53.46 102.459 51.62 102.459 47.94C102.459 44.26 101.319 42.42 99.0387 42.42ZM132.32 62.64C132.32 62.92 130.88 63.06 128 63.06C124 62.94 122 62.72 122 62.4V42.96H120.44C119.4 42.96 118.72 42.08 118.4 40.32C118.32 39.8 118.28 39.28 118.28 38.76C118.28 37.52 118.52 36.28 119 35.04C119.72 33.28 120.84 32.4 122.36 32.4C123.88 32.4 125.24 32.76 126.44 33.48C127.64 34.2 128.44 34.92 128.84 35.64C131.36 33.48 134.36 32.4 137.84 32.4C141.32 32.4 143.84 33.34 145.4 35.22C146.96 37.1 147.74 40.18 147.74 44.46V62.46C147.74 62.94 146.02 63.18 142.58 63.18C139.18 63.18 137.48 62.94 137.48 62.46V45.12C137.48 43.12 136.78 42.12 135.38 42.12C134.98 42.12 134.42 42.3 133.7 42.66C132.98 42.98 132.52 43.22 132.32 43.38V62.64ZM178.207 61.38C175.687 62.86 172.447 63.6 168.487 63.6C164.527 63.6 161.187 62.26 158.467 59.58C155.747 56.86 154.387 53.12 154.387 48.36C154.387 43.56 155.687 39.7 158.287 36.78C160.927 33.86 164.247 32.4 168.247 32.4C172.247 32.4 175.327 33.42 177.487 35.46C179.687 37.5 180.787 39.98 180.787 42.9C180.787 49.38 177.067 52.62 169.627 52.62H165.487C165.487 53.82 165.807 54.66 166.447 55.14C167.127 55.58 168.107 55.8 169.387 55.8C172.187 55.8 174.847 55.16 177.367 53.88C177.407 53.84 177.587 54.12 177.907 54.72C178.867 56.44 179.347 57.9 179.347 59.1C179.347 60.26 178.967 61.02 178.207 61.38ZM170.707 44.04C170.707 42.36 169.887 41.52 168.247 41.52C167.487 41.52 166.827 41.76 166.267 42.24C165.747 42.68 165.487 43.34 165.487 44.22V46.08H168.727C170.047 46.08 170.707 45.4 170.707 44.04Z" fill="#425F57"/>
</g>
<defs>
<filter id="filter0_ii_76_1411" x="0" y="-4" width="223" height="98" filterUnits="userSpaceOnUse" color-interpolation-filters="sRGB">
<feFlood flood-opacity="0" result="BackgroundImageFix"/>
<feBlend mode="normal" in="SourceGraphic" in2="BackgroundImageFix" result="shape"/>
<feColorMatrix in="SourceAlpha" type="matrix" values="0 0 0 0 0 0 0 0 0 0 0 0 0 0 0 0 0 0 127 0" result="hardAlpha"/>
<feOffset dy="-14"/>
<feGaussianBlur stdDeviation="2"/>
<feComposite in2="hardAlpha" operator="arithmetic" k2="-1" k3="1"/>
<feColorMatrix type="matrix" values="0 0 0 0 0.454902 0 0 0 0 0.623529 0 0 0 0 0.509804 0 0 0 1 0"/>
<feBlend mode="normal" in2="shape" result="effect1_innerShadow_76_1411"/>
<feColorMatrix in="SourceAlpha" type="matrix" values="0 0 0 0 0 0 0 0 0 0 0 0 0 0 0 0 0 0 127 0" result="hardAlpha"/>
<feOffset dx="2" dy="20"/>
<feGaussianBlur stdDeviation="2"/>
<feComposite in2="hardAlpha" operator="arithmetic" k2="-1" k3="1"/>
<feColorMatrix type="matrix" values="0 0 0 0 0.811765 0 0 0 0 1 0 0 0 0 0.552941 0 0 0 1 0"/>
<feBlend mode="normal" in2="effect1_innerShadow_76_1411" result="effect2_innerShadow_76_1411"/>
</filter>
<filter id="filter1_i_76_1411" x="48.5527" y="20.46" width="132.234" height="47.14" filterUnits="userSpaceOnUse" color-interpolation-filters="sRGB">
<feFlood flood-opacity="0" result="BackgroundImageFix"/>
<feBlend mode="normal" in="SourceGraphic" in2="BackgroundImageFix" result="shape"/>
<feColorMatrix in="SourceAlpha" type="matrix" values="0 0 0 0 0 0 0 0 0 0 0 0 0 0 0 0 0 0 127 0" result="hardAlpha"/>
<feOffset dy="4"/>
<feGaussianBlur stdDeviation="2"/>
<feComposite in2="hardAlpha" operator="arithmetic" k2="-1" k3="1"/>
<feColorMatrix type="matrix" values="0 0 0 0 0 0 0 0 0 0 0 0 0 0 0 0 0 0 0.25 0"/>
<feBlend mode="normal" in2="shape" result="effect1_innerShadow_76_1411"/>
</filter>
</defs>
</svg>
