<svg width="90" height="90" viewBox="0 0 90 90" fill="none" xmlns="http://www.w3.org/2000/svg">
<g filter="url(#filter0_ii_77_1706)">
<rect y="5.72205e-05" width="90" height="90" rx="30" fill="#A6FFAF"/>
</g>
<rect x="1.5" y="1.50006" width="87" height="87" rx="28.5" stroke="white" stroke-width="3"/>
<g filter="url(#filter1_i_77_1706)">
<path d="M34 19.0001C31.8783 19.0001 29.8434 19.799 28.3431 21.2212C26.8429 22.6433 26 24.5722 26 26.5834V63.4167C26 65.428 26.8429 67.3568 28.3431 68.779C29.8434 70.2011 31.8783 71.0001 34 71.0001C36.1217 71.0001 38.1566 70.2011 39.6569 68.779C41.1571 67.3568 42 65.428 42 63.4167V26.5834C42 24.5722 41.1571 22.6433 39.6569 21.2212C38.1566 19.799 36.1217 19.0001 34 19.0001Z" fill="#D9D9D9"/>
<path d="M34 19.0001C31.8783 19.0001 29.8434 19.799 28.3431 21.2212C26.8429 22.6433 26 24.5722 26 26.5834V63.4167C26 65.428 26.8429 67.3568 28.3431 68.779C29.8434 70.2011 31.8783 71.0001 34 71.0001C36.1217 71.0001 38.1566 70.2011 39.6569 68.779C41.1571 67.3568 42 65.428 42 63.4167V26.5834C42 24.5722 41.1571 22.6433 39.6569 21.2212C38.1566 19.799 36.1217 19.0001 34 19.0001Z" fill="#425F57"/>
<path d="M58 19.0001C56.1435 19.0001 54.363 19.799 53.0503 21.2212C51.7375 22.6433 51 24.5722 51 26.5834V63.4167C51 65.428 51.7375 67.3568 53.0503 68.779C54.363 70.2011 56.1435 71.0001 58 71.0001C59.8565 71.0001 61.637 70.2011 62.9497 68.779C64.2625 67.3568 65 65.428 65 63.4167V26.5834C65 24.5722 64.2625 22.6433 62.9497 21.2212C61.637 19.799 59.8565 19.0001 58 19.0001Z" fill="#D9D9D9"/>
<path d="M58 19.0001C56.1435 19.0001 54.363 19.799 53.0503 21.2212C51.7375 22.6433 51 24.5722 51 26.5834V63.4167C51 65.428 51.7375 67.3568 53.0503 68.779C54.363 70.2011 56.1435 71.0001 58 71.0001C59.8565 71.0001 61.637 70.2011 62.9497 68.779C64.2625 67.3568 65 65.428 65 63.4167V26.5834C65 24.5722 64.2625 22.6433 62.9497 21.2212C61.637 19.799 59.8565 19.0001 58 19.0001Z" fill="#425F57"/>
</g>
<path d="M24.0004 11.0001C18.4004 11.4001 11.5004 15.0001 13.0004 22.0001C14.5004 29.0001 28.0004 22.0001 31.5004 18.5001C35.0004 15.0001 31.0004 10.5001 24.0004 11.0001Z" fill="#F4F0D8" fill-opacity="0.76"/>
<path d="M12.9497 26.0162C10.7031 26.3229 6.56484 28.296 8.50201 30.1958C10.4392 32.0957 15.7668 30.2075 15.9822 28.8659C16.1976 27.5244 14.4165 25.8159 12.9497 26.0162Z" fill="#F4F0D8" fill-opacity="0.76"/>
<defs>
<filter id="filter0_ii_77_1706" x="0" y="-3.99994" width="92" height="98" filterUnits="userSpaceOnUse" color-interpolation-filters="sRGB">
<feFlood flood-opacity="0" result="BackgroundImageFix"/>
<feBlend mode="normal" in="SourceGraphic" in2="BackgroundImageFix" result="shape"/>
<feColorMatrix in="SourceAlpha" type="matrix" values="0 0 0 0 0 0 0 0 0 0 0 0 0 0 0 0 0 0 127 0" result="hardAlpha"/>
<feOffset dy="-14"/>
<feGaussianBlur stdDeviation="2"/>
<feComposite in2="hardAlpha" operator="arithmetic" k2="-1" k3="1"/>
<feColorMatrix type="matrix" values="0 0 0 0 0.454902 0 0 0 0 0.623529 0 0 0 0 0.509804 0 0 0 1 0"/>
<feBlend mode="normal" in2="shape" result="effect1_innerShadow_77_1706"/>
<feColorMatrix in="SourceAlpha" type="matrix" values="0 0 0 0 0 0 0 0 0 0 0 0 0 0 0 0 0 0 127 0" result="hardAlpha"/>
<feOffset dx="2" dy="20"/>
<feGaussianBlur stdDeviation="2"/>
<feComposite in2="hardAlpha" operator="arithmetic" k2="-1" k3="1"/>
<feColorMatrix type="matrix" values="0 0 0 0 0.811765 0 0 0 0 1 0 0 0 0 0.552941 0 0 0 1 0"/>
<feBlend mode="normal" in2="effect1_innerShadow_77_1706" result="effect2_innerShadow_77_1706"/>
</filter>
<filter id="filter1_i_77_1706" x="26" y="19.0001" width="39" height="56" filterUnits="userSpaceOnUse" color-interpolation-filters="sRGB">
<feFlood flood-opacity="0" result="BackgroundImageFix"/>
<feBlend mode="normal" in="SourceGraphic" in2="BackgroundImageFix" result="shape"/>
<feColorMatrix in="SourceAlpha" type="matrix" values="0 0 0 0 0 0 0 0 0 0 0 0 0 0 0 0 0 0 127 0" result="hardAlpha"/>
<feOffset dy="4"/>
<feGaussianBlur stdDeviation="2"/>
<feComposite in2="hardAlpha" operator="arithmetic" k2="-1" k3="1"/>
<feColorMatrix type="matrix" values="0 0 0 0 0 0 0 0 0 0 0 0 0 0 0 0 0 0 0.25 0"/>
<feBlend mode="normal" in2="shape" result="effect1_innerShadow_77_1706"/>
</filter>
</defs>
</svg>
