<svg width="221" height="90" viewBox="0 0 221 90" fill="none" xmlns="http://www.w3.org/2000/svg">
<g filter="url(#filter0_ii_76_1390)">
<rect width="221" height="90" rx="30" fill="#CFFF8D"/>
</g>
<rect x="1.5" y="1.5" width="218" height="87" rx="28.5" stroke="white" stroke-width="3"/>
<g filter="url(#filter1_i_76_1390)">
<path d="M46.0717 50.2C49.3117 52.16 51.8717 53.14 53.7517 53.14C54.9517 53.14 55.5517 52.72 55.5517 51.88C55.5517 51.28 54.5117 50.5 52.4317 49.54C47.4317 47.5 44.9317 44.16 44.9317 39.52C44.9317 36.56 46.0117 34.3 48.1717 32.74C50.3317 31.18 52.9117 30.4 55.9117 30.4C58.9517 30.4 61.5117 30.72 63.5917 31.36C65.7117 32 66.7717 32.84 66.7717 33.88C66.7717 34.76 66.3317 35.92 65.4517 37.36C64.6117 38.8 64.0317 39.58 63.7117 39.7C61.9917 38.74 60.1317 38.26 58.1317 38.26C57.0517 38.26 56.5117 38.64 56.5117 39.4C56.5117 39.88 56.7117 40.3 57.1117 40.66C57.5517 40.98 58.3317 41.4 59.4517 41.92C60.5717 42.4 61.4917 42.84 62.2117 43.24C62.9717 43.64 63.8117 44.2 64.7317 44.92C66.6517 46.44 67.6117 48.42 67.6117 50.86C67.6117 54.06 66.5517 56.66 64.4317 58.66C62.3117 60.62 59.1117 61.6 54.8317 61.6C51.9917 61.6 49.4117 61.12 47.0917 60.16C44.7717 59.2 43.6117 57.88 43.6117 56.2C43.6117 55.08 43.8717 53.9 44.3917 52.66C44.9517 51.42 45.5117 50.6 46.0717 50.2ZM88.3234 60.64C88.3234 61.12 86.6434 61.36 83.2834 61.36C79.2834 61.2 77.2834 60.94 77.2834 60.58V39.34H74.2234C73.4234 39.34 73.0234 37.96 73.0234 35.2C73.0234 34.48 73.0834 33.6 73.2034 32.56C73.3634 31.52 73.6634 31 74.1034 31H77.2834V25.72C77.2834 24.92 78.9634 24.52 82.3234 24.52C85.7234 24.52 87.4234 24.84 87.4234 25.48V29.32L87.4834 31H92.5834C93.2634 31 93.6034 32.4 93.6034 35.2C93.6034 38 93.2634 39.4 92.5834 39.4H88.3234V60.64ZM103.093 39.22C101.973 37.22 101.413 35.6 101.413 34.36C101.413 33.08 101.753 32.26 102.433 31.9C104.713 30.9 107.833 30.4 111.793 30.4C115.793 30.4 118.613 31.34 120.253 33.22C121.893 35.06 122.713 37.8 122.713 41.44V50.92H124.753C125.433 50.92 125.953 51.32 126.313 52.12C126.713 52.92 126.913 54.02 126.913 55.42C126.913 56.82 126.553 58.2 125.833 59.56C125.153 60.92 124.213 61.6 123.013 61.6C120.853 61.6 119.113 61.02 117.793 59.86C117.193 59.38 116.733 58.8 116.413 58.12C114.573 60.44 111.713 61.6 107.833 61.6C104.913 61.6 102.453 60.56 100.453 58.48C98.4533 56.4 97.4533 53.94 97.4533 51.1C97.4533 44.58 101.353 41.32 109.153 41.32H112.453V40.72C112.453 39.68 112.273 39.02 111.913 38.74C111.593 38.42 110.813 38.26 109.573 38.26C108.053 38.26 105.893 38.58 103.093 39.22ZM107.893 50.26C107.893 51.14 108.133 51.82 108.613 52.3C109.093 52.74 109.693 52.96 110.413 52.96C111.173 52.96 111.853 52.66 112.453 52.06V47.44H110.773C108.853 47.44 107.893 48.38 107.893 50.26ZM146.149 60.94C146.149 61.22 144.329 61.36 140.689 61.36C137.049 61.28 135.229 61.12 135.229 60.88V40.96H133.609C132.969 40.96 132.449 40.58 132.049 39.82C131.689 39.02 131.509 38.04 131.509 36.88C131.509 32.56 132.789 30.4 135.349 30.4C137.149 30.4 138.649 30.96 139.849 32.08C141.049 33.16 141.649 34.4 141.649 35.8C142.489 34.16 143.609 32.86 145.009 31.9C146.449 30.9 147.909 30.4 149.389 30.4C151.709 30.4 153.109 31 153.589 32.2C153.709 32.52 153.769 33 153.769 33.64C153.769 34.24 153.569 35.34 153.169 36.94C152.809 38.54 152.429 39.7 152.029 40.42C151.629 41.14 151.389 41.5 151.309 41.5C151.229 41.5 150.849 41.36 150.169 41.08C149.529 40.76 148.949 40.6 148.429 40.6C146.909 40.6 146.149 41.8 146.149 44.2V60.94ZM173.298 60.64C173.298 61.12 171.618 61.36 168.258 61.36C164.258 61.2 162.258 60.94 162.258 60.58V39.34H159.198C158.398 39.34 157.998 37.96 157.998 35.2C157.998 34.48 158.058 33.6 158.178 32.56C158.338 31.52 158.638 31 159.078 31H162.258V25.72C162.258 24.92 163.938 24.52 167.298 24.52C170.698 24.52 172.398 24.84 172.398 25.48V29.32L172.458 31H177.558C178.238 31 178.578 32.4 178.578 35.2C178.578 38 178.238 39.4 177.558 39.4H173.298V60.64Z" fill="#425F57"/>
</g>
<defs>
<filter id="filter0_ii_76_1390" x="0" y="-4" width="223" height="98" filterUnits="userSpaceOnUse" color-interpolation-filters="sRGB">
<feFlood flood-opacity="0" result="BackgroundImageFix"/>
<feBlend mode="normal" in="SourceGraphic" in2="BackgroundImageFix" result="shape"/>
<feColorMatrix in="SourceAlpha" type="matrix" values="0 0 0 0 0 0 0 0 0 0 0 0 0 0 0 0 0 0 127 0" result="hardAlpha"/>
<feOffset dy="-14"/>
<feGaussianBlur stdDeviation="2"/>
<feComposite in2="hardAlpha" operator="arithmetic" k2="-1" k3="1"/>
<feColorMatrix type="matrix" values="0 0 0 0 0.454902 0 0 0 0 0.623529 0 0 0 0 0.509804 0 0 0 1 0"/>
<feBlend mode="normal" in2="shape" result="effect1_innerShadow_76_1390"/>
<feColorMatrix in="SourceAlpha" type="matrix" values="0 0 0 0 0 0 0 0 0 0 0 0 0 0 0 0 0 0 127 0" result="hardAlpha"/>
<feOffset dx="2" dy="20"/>
<feGaussianBlur stdDeviation="2"/>
<feComposite in2="hardAlpha" operator="arithmetic" k2="-1" k3="1"/>
<feColorMatrix type="matrix" values="0 0 0 0 0.811765 0 0 0 0 1 0 0 0 0 0.552941 0 0 0 1 0"/>
<feBlend mode="normal" in2="effect1_innerShadow_76_1390" result="effect2_innerShadow_76_1390"/>
</filter>
<filter id="filter1_i_76_1390" x="43.6113" y="24.52" width="134.967" height="41.08" filterUnits="userSpaceOnUse" color-interpolation-filters="sRGB">
<feFlood flood-opacity="0" result="BackgroundImageFix"/>
<feBlend mode="normal" in="SourceGraphic" in2="BackgroundImageFix" result="shape"/>
<feColorMatrix in="SourceAlpha" type="matrix" values="0 0 0 0 0 0 0 0 0 0 0 0 0 0 0 0 0 0 127 0" result="hardAlpha"/>
<feOffset dy="4"/>
<feGaussianBlur stdDeviation="2"/>
<feComposite in2="hardAlpha" operator="arithmetic" k2="-1" k3="1"/>
<feColorMatrix type="matrix" values="0 0 0 0 0 0 0 0 0 0 0 0 0 0 0 0 0 0 0.25 0"/>
<feBlend mode="normal" in2="shape" result="effect1_innerShadow_76_1390"/>
</filter>
</defs>
</svg>
