<svg width="396" height="90" viewBox="0 0 396 90" fill="none" xmlns="http://www.w3.org/2000/svg">
<g filter="url(#filter0_ii_77_1728)">
<rect width="396" height="90" rx="30" fill="#A6FFAF"/>
</g>
<rect x="1.5" y="1.5" width="393" height="87" rx="28.5" stroke="#D9D9D9" stroke-width="3"/>
<rect x="1.5" y="1.5" width="393" height="87" rx="28.5" stroke="#425F57" stroke-width="3"/>
<g filter="url(#filter1_i_77_1728)">
<path d="M143.512 41.6875C143.173 41.7917 143.004 41.9935 143.004 42.293V42.3906C143.004 42.4557 143.01 42.4948 143.023 42.5078C143.167 42.4948 143.355 42.4883 143.59 42.4883H144.059C145.543 42.4883 146.93 42.7161 148.219 43.1719C149.521 43.6146 150.582 44.3307 151.402 45.3203C152.314 46.4401 152.77 47.8529 152.77 49.5586C152.77 52.2148 151.852 54.2201 150.016 55.5742C148.18 56.9284 145.725 57.6055 142.652 57.6055C139.579 57.6055 137.171 57.0977 135.426 56.082C133.694 55.0664 132.828 53.5755 132.828 51.6094C132.828 50.8802 132.984 50.2161 133.297 49.6172C133.609 49.0052 133.961 48.5755 134.352 48.3281C135.068 48.9271 136.103 49.4479 137.457 49.8906C138.824 50.3203 140.27 50.5352 141.793 50.5352C142.405 50.5352 142.711 50.3659 142.711 50.0273C142.711 49.8711 142.691 49.7409 142.652 49.6367C142.561 49.6497 142.451 49.6562 142.32 49.6562H142.105C139.345 49.6562 137.138 49.1094 135.484 48.0156C133.609 46.7786 132.672 45.0339 132.672 42.7812C132.672 40.5286 133.512 38.7057 135.191 37.3125C137.053 35.776 139.612 35.0078 142.867 35.0078C144.469 35.0078 145.96 35.1771 147.34 35.5156C148.733 35.8542 149.924 36.3034 150.914 36.8633C151.161 37.3971 151.285 38.1849 151.285 39.2266C151.285 40.8151 150.849 42.0326 149.977 42.8789C149.312 42.5143 148.499 42.2148 147.535 41.9805C146.585 41.7331 145.725 41.6094 144.957 41.6094C144.189 41.6094 143.707 41.6354 143.512 41.6875ZM165.917 48.4844C166.073 48.4844 166.243 48.4193 166.425 48.2891C166.295 47.8594 166.23 47.1888 166.23 46.2773V36.6289C167.61 35.7956 169.27 35.3789 171.21 35.3789C172.304 35.3789 173.261 35.5286 174.081 35.8281C174.915 36.1146 175.553 36.4987 175.995 36.9805V47.1562C175.995 49.0964 176.464 50.3594 177.402 50.9453C177.415 51.0104 177.421 51.1341 177.421 51.3164V51.668C177.421 53.569 176.92 55.0078 175.917 55.9844C175.006 56.8958 173.749 57.3516 172.148 57.3516C171.145 57.3516 170.234 57.1237 169.413 56.668C168.606 56.2122 168.001 55.5482 167.597 54.6758C167.154 54.6758 166.933 54.8906 166.933 55.3203C166.933 55.6198 167.083 55.9193 167.382 56.2188C166.965 56.5573 166.464 56.8307 165.878 57.0391C165.292 57.2474 164.426 57.3516 163.28 57.3516C162.148 57.3516 161.041 57.1172 159.96 56.6484C158.619 56.0755 157.59 55.1966 156.874 54.0117C156.002 52.6055 155.566 50.8216 155.566 48.6602V43.7578C154.902 42.599 154.57 41.3229 154.57 39.9297C154.57 39.2135 154.661 38.4714 154.843 37.7031C155.025 36.9349 155.318 36.2513 155.722 35.6523H160.019C161.633 35.6523 162.896 36.0365 163.808 36.8047C164.732 37.5599 165.195 38.7122 165.195 40.2617V46.5898C165.195 47.8529 165.435 48.4844 165.917 48.4844ZM189.631 49.0117C189.761 49.1419 189.918 49.207 190.1 49.207C190.386 49.207 190.582 49.0052 190.686 48.6016C190.79 48.1849 190.842 47.3516 190.842 46.1016V44.1094C190.842 43.7578 190.797 43.5104 190.705 43.3672C190.614 43.224 190.465 43.1523 190.256 43.1523C190.048 43.1523 189.898 43.1979 189.807 43.2891V45.9062C189.807 46.6875 189.748 47.7227 189.631 49.0117ZM190.413 33.0156V34.7539C189.319 34.819 188.316 34.9883 187.405 35.2617C186.493 35.5221 186.038 35.8281 186.038 36.1797C186.038 36.388 186.142 36.5573 186.35 36.6875C187.782 35.9844 189.299 35.6328 190.901 35.6328C193.765 35.6328 196.109 36.6224 197.932 38.6016C199.768 40.5677 200.686 43.1328 200.686 46.2969C200.686 50.125 199.579 53.0091 197.366 54.9492C195.347 56.7201 192.6 57.6055 189.123 57.6055C185.66 57.6055 183.108 56.9349 181.467 55.5938C180.569 54.8516 180.12 53.888 180.12 52.7031V30.418C180.745 30.0534 181.493 29.7539 182.366 29.5195C183.251 29.2852 184.143 29.168 185.041 29.168C186.539 29.168 187.776 29.4609 188.752 30.0469C189.859 30.737 190.413 31.7266 190.413 33.0156ZM235.396 47.332C235.396 48.2826 235.5 49.0573 235.709 49.6562C235.917 50.2552 236.282 50.7174 236.802 51.043C236.815 51.1081 236.822 51.2188 236.822 51.375V51.668C236.822 53.4518 236.301 54.8451 235.259 55.8477C234.218 56.8503 232.87 57.3516 231.216 57.3516C229.576 57.3516 228.254 56.9023 227.252 56.0039C226.067 54.9622 225.474 53.3672 225.474 51.2188V45.0469C225.474 44.1745 225.188 43.7383 224.615 43.7383C224.393 43.7383 224.218 43.7904 224.087 43.8945L224.439 46.8047V51.2188C224.439 52.9896 224.732 54.3307 225.318 55.2422C224.693 55.9062 223.912 56.4271 222.974 56.8047C222.05 57.1693 221.106 57.3516 220.142 57.3516C218.58 57.3516 217.369 56.974 216.509 56.2188C215.468 55.3073 214.947 53.8685 214.947 51.9023V45.0469C214.947 44.1745 214.66 43.7383 214.087 43.7383C213.866 43.7383 213.69 43.7904 213.56 43.8945L213.912 46.8047V51.9805C213.912 53.4388 214.107 54.5651 214.498 55.3594C213.222 56.6745 211.431 57.332 209.127 57.332C207.759 57.332 206.607 56.987 205.67 56.2969C204.589 55.5026 204.048 54.4349 204.048 53.0938V43.7578C203.28 42.6771 202.896 41.349 202.896 39.7734C202.896 38.1849 203.28 36.8112 204.048 35.6523H208.755C209.68 35.6523 210.468 35.9974 211.119 36.6875C210.546 37.2214 210.259 37.6641 210.259 38.0156C210.259 38.4193 210.487 38.6211 210.943 38.6211C211.516 37.6315 212.304 36.8438 213.306 36.2578C214.478 35.5938 215.852 35.2617 217.427 35.2617C218.625 35.2617 219.673 35.5156 220.572 36.0234C221.483 36.5312 222.16 37.1172 222.603 37.7812C223.215 36.9479 224.009 36.3229 224.986 35.9062C225.976 35.4766 227.004 35.2617 228.072 35.2617C230.429 35.2617 232.258 35.9909 233.56 37.4492C234.836 38.9076 235.474 40.9062 235.474 43.4453L235.396 47.332ZM249.325 39.4219V47.1562C249.325 49.0964 249.794 50.3594 250.731 50.9453C250.744 51.0104 250.751 51.1341 250.751 51.3164V51.668C250.751 53.582 250.23 55.0208 249.188 55.9844C248.225 56.8958 246.936 57.3516 245.321 57.3516C243.72 57.3516 242.398 56.8958 241.356 55.9844C240.041 54.8255 239.384 53.1328 239.384 50.9062V38.2109C239.618 38.0417 239.872 37.9049 240.145 37.8008C240.419 37.6966 240.705 37.5664 241.005 37.4102C240.445 37.1237 239.937 36.6289 239.481 35.9258C239.026 35.2096 238.798 34.3763 238.798 33.4258C238.798 31.7852 239.338 30.444 240.419 29.4023C241.499 28.3607 242.821 27.8398 244.384 27.8398C245.959 27.8398 247.274 28.3737 248.329 29.4414C249.397 30.4961 249.93 31.8242 249.93 33.4258C249.93 34.7148 249.527 35.8477 248.72 36.8242C247.912 37.7878 246.929 38.3932 245.77 38.6406C245.77 39.1354 245.959 39.3828 246.337 39.3828C247.001 39.3828 247.678 39.1224 248.368 38.6016C248.889 39.0052 249.208 39.2786 249.325 39.4219ZM255.109 44.6562H256.32C256.971 44.6562 257.297 44.4414 257.297 44.0117C257.297 43.9596 257.284 43.8815 257.258 43.7773H252.883C252.596 42.8659 252.453 41.8503 252.453 40.7305C252.453 39.5977 252.538 38.6797 252.707 37.9766C253.449 37.5078 254.471 36.7917 255.773 35.8281C256.138 34.9427 256.613 33.5365 257.199 31.6094C257.277 31.349 257.368 31.0951 257.473 30.8477C258.488 30.5872 259.647 30.457 260.949 30.457C262.251 30.457 263.534 30.5938 264.797 30.8672V35.6523H268.176C268.931 36.7982 269.309 38.1458 269.309 39.6953C269.309 40.3984 269.211 41.1211 269.016 41.8633C268.82 42.6055 268.54 43.237 268.176 43.7578H265.383V46.707C265.383 48.3737 266.079 49.207 267.473 49.207H268.312C268.586 50.1966 268.723 51.056 268.723 51.7852C268.723 53.582 268.156 54.9622 267.023 55.9258C265.904 56.8763 264.27 57.3516 262.121 57.3516C259.986 57.3516 258.28 56.7591 257.004 55.5742C255.741 54.3763 255.109 52.6185 255.109 50.3008V44.6562Z" fill="#425F57"/>
</g>
<defs>
<filter id="filter0_ii_77_1728" x="0" y="-4" width="398" height="98" filterUnits="userSpaceOnUse" color-interpolation-filters="sRGB">
<feFlood flood-opacity="0" result="BackgroundImageFix"/>
<feBlend mode="normal" in="SourceGraphic" in2="BackgroundImageFix" result="shape"/>
<feColorMatrix in="SourceAlpha" type="matrix" values="0 0 0 0 0 0 0 0 0 0 0 0 0 0 0 0 0 0 127 0" result="hardAlpha"/>
<feOffset dy="-14"/>
<feGaussianBlur stdDeviation="2"/>
<feComposite in2="hardAlpha" operator="arithmetic" k2="-1" k3="1"/>
<feColorMatrix type="matrix" values="0 0 0 0 0.454902 0 0 0 0 0.623529 0 0 0 0 0.509804 0 0 0 1 0"/>
<feBlend mode="normal" in2="shape" result="effect1_innerShadow_77_1728"/>
<feColorMatrix in="SourceAlpha" type="matrix" values="0 0 0 0 0 0 0 0 0 0 0 0 0 0 0 0 0 0 127 0" result="hardAlpha"/>
<feOffset dx="2" dy="20"/>
<feGaussianBlur stdDeviation="2"/>
<feComposite in2="hardAlpha" operator="arithmetic" k2="-1" k3="1"/>
<feColorMatrix type="matrix" values="0 0 0 0 0.811765 0 0 0 0 1 0 0 0 0 0.552941 0 0 0 1 0"/>
<feBlend mode="normal" in2="effect1_innerShadow_77_1728" result="effect2_innerShadow_77_1728"/>
</filter>
<filter id="filter1_i_77_1728" x="132.672" y="27.8398" width="136.637" height="33.7656" filterUnits="userSpaceOnUse" color-interpolation-filters="sRGB">
<feFlood flood-opacity="0" result="BackgroundImageFix"/>
<feBlend mode="normal" in="SourceGraphic" in2="BackgroundImageFix" result="shape"/>
<feColorMatrix in="SourceAlpha" type="matrix" values="0 0 0 0 0 0 0 0 0 0 0 0 0 0 0 0 0 0 127 0" result="hardAlpha"/>
<feOffset dy="4"/>
<feGaussianBlur stdDeviation="2"/>
<feComposite in2="hardAlpha" operator="arithmetic" k2="-1" k3="1"/>
<feColorMatrix type="matrix" values="0 0 0 0 0 0 0 0 0 0 0 0 0 0 0 0 0 0 0.25 0"/>
<feBlend mode="normal" in2="shape" result="effect1_innerShadow_77_1728"/>
</filter>
</defs>
</svg>
